<svg xmlns="http://www.w3.org/2000/svg" xmlns:xlink="http://www.w3.org/1999/xlink" aria-hidden="true" focusable="false" style="-ms-transform: rotate(360deg); -webkit-transform: rotate(360deg); transform: rotate(360deg);" preserveAspectRatio="xMidYMid meet" viewBox="0 0 36 36"><path fill="#F5AC37" d="M31.898 23.938C31.3 17.32 28 14 28 14l-6-8h-8l-6 8s-1.419 1.433-2.567 4.275C3.444 18.935 2 20.789 2 23a4.97 4.97 0 0 0 1.609 3.655A4.943 4.943 0 0 0 3 29c0 1.958 1.136 3.636 2.775 4.456C7.058 35.378 8.772 36 10 36h16c1.379 0 3.373-.779 4.678-3.31C32.609 31.999 34 30.17 34 28a4.988 4.988 0 0 0-2.102-4.062zM18 6c.55 0 1.058-.158 1.5-.416c.443.258.951.416 1.5.416c1.657 0 4-2.344 4-4c0 0 0-2-2-2c-.788 0-1 1-2 1s-1-1-3-1s-2 1-3 1s-1.211-1-2-1c-2 0-2 2-2 2c0 1.656 2.344 4 4 4c.549 0 1.057-.158 1.5-.416c.443.258.951.416 1.5.416z"/><path fill="#BF6952" d="M24 6a1 1 0 0 1-1 1H13a1 1 0 0 1 0-2h10a1 1 0 0 1 1 1z"/>
<defs>
    <clipPath id="cut-off-bottom">
      <rect x="18.75" y="3" width="14.25" height="39"></rect>
    </clipPath>
  </defs>
  <g stroke-opacity="1" stroke="#FEFEFD">
  		<circle cx="18.75" cy="24" r="10" fill="none" stroke-width="1.0" clip-path="url(#cut-off-bottom)" stroke-linecap="square"></circle>
  		<polyline fill="none" stroke-width="1.0" points="11.25 34, 11.25 14" stroke-linecap="square"></polyline>
  		<polyline fill="none" stroke-width="1.0" stroke-linecap="square" points="11.25 14, 18.75 14"></polyline>
  		<polyline fill="none" stroke-width="1.0" stroke-linecap="square" points="8.25 34, 18.75 34"></polyline>
		<polyline fill="none" stroke-width="1.0" points="11.25 14, 27 35" stroke-linecap="round"></polyline>
		<polyline stroke="yellow" fill="none" stroke-width="1.0" stroke-linecap="square" points="26.25 10, 23.25 14" stroke-opacity="0"></polyline>
		<circle r="1.0" stroke-width="1.0" stroke-linecap="square" fill="#F5AC37" cx="10.5" cy="13"></circle>
	</g>
</svg>
