<svg width="380" height="352" xmlns="http://www.w3.org/2000/svg">

<g>

  <title>Layer 1</title><g fill="#59251b" id="svgg">
   <path fill-rule="evenodd" fill="#59251b" d="m185.527,0.823c-5.812,0.895 -11.232,3.235 -16.136,6.967c-4.127,3.14 -6.126,5.743 -11.046,14.384c-1.276,2.242 -1.593,2.131 -2.864,-1.006c-1.79,-4.42 -3.442,-5.421 -9.435,-5.72c-21.209,-1.058 -36.988,17.613 -33.648,39.815c0.685,4.553 0.495,4.779 -2.673,3.174c-4.431,-2.245 -7.111,-1.433 -20.75,6.291c-43.158,24.439 -72.388,61.734 -83.485,106.52c-15.459,62.392 2.849,111.83 53.848,145.412c29.134,19.183 63.398,29.881 109.6,34.219c4.189,0.394 36.457,0.543 40.116,0.186c1.207,-0.118 4.963,-0.478 8.346,-0.799c84.104,-7.988 145.064,-49.681 159.213,-108.891c4.091,-17.121 4.069,-40.171 -0.058,-61.029c-10.985,-55.516 -45.361,-97.356 -101.93,-124.065c-12.103,-5.714 -12.91,-6.37 -10.029,-8.15c7.142,-4.414 -0.242,-20.701 -12.812,-28.255c-9.925,-5.965 -21.324,-6.092 -33.046,-0.366c-5.276,2.576 -5.749,2.447 -4.32,-1.178c1.41,-3.578 0.934,-5.889 -1.792,-8.702c-6.278,-6.478 -17.833,-10.233 -27.099,-8.807m11.689,4.301c4.134,1.001 8.917,3.52 11.134,5.865c3.09,3.267 3.088,3.284 -1.201,10.884c-3.149,5.581 -4.387,11.272 -2.797,12.861c1.436,1.437 2.06,1.044 8.202,-5.165c7.822,-7.909 13.386,-10.492 22.602,-10.492c12.654,0 24.962,8.841 27.51,19.762c0.981,4.207 0.337,4.903 -5.005,5.402c-5.742,0.537 -9.36,1.777 -10.201,3.496c-1.1,2.248 0.347,3.272 6.659,4.715c26.379,6.028 66.107,32.894 86.81,58.704c32.008,39.903 43.533,102.676 26.565,144.689c-22.529,55.783 -90.909,90.911 -177.121,90.99c-66.681,0.062 -120.728,-19.662 -157.146,-57.347c-27.611,-28.571 -36.001,-70.342 -23.842,-118.687c10.67,-42.418 39.325,-78.867 80.522,-102.421c13.831,-7.908 15.281,-8.139 20.503,-3.264c10.936,10.21 17.589,9.72 10.778,-0.793c-4.93,-7.611 -5.783,-10.351 -5.473,-17.577c0.66,-15.341 12.992,-27.411 28.059,-27.461c6.449,-0.022 7.336,0.792 7.793,7.145c0.597,8.294 3.792,15.23 6.683,14.505c1.343,-0.338 2.002,-2.501 2.512,-8.251c1.772,-19.989 17.772,-32.085 36.454,-27.56m-12.17,64.755c-1.033,1.099 -1.47,3.459 -1.721,9.3c-0.468,10.843 -2.419,19.303 -6.471,28.062c-3.706,8.011 -2.704,11.008 2.79,8.348c11.095,-5.371 17.956,-28.612 12.121,-41.054c-2.361,-5.032 -4.786,-6.713 -6.719,-4.656m-12.891,7.36c-0.705,0.619 -2.333,2.674 -3.617,4.567c-2.971,4.377 -5.426,7.558 -8.553,11.083c-4.894,5.516 -5.065,7.829 -0.578,7.829c6.163,0 15.615,-10.054 17.362,-18.466c1.044,-5.031 -1.475,-7.768 -4.614,-5.013m25.568,-0.71c-6.244,2.31 4.951,20.285 14.573,23.398c5.342,1.729 9.953,0.74 9.949,-2.132c-0.003,-2.073 -1.084,-3.221 -8.759,-9.303c-2.051,-1.625 -5.85,-4.968 -8.443,-7.429c-4.644,-4.408 -5.772,-5.106 -7.32,-4.534m-8.675,6.947c1.546,5.566 -0.481,16.051 -4.036,20.876c-2.516,3.415 -2.793,2.069 -0.998,-4.844c0.706,-2.718 1.806,-7.615 2.444,-10.883c0.639,-3.267 1.246,-6.077 1.349,-6.244c0.403,-0.653 0.871,-0.24 1.241,1.095m18.998,5.761c2.901,2.18 5.999,5.153 5.999,5.756c0,1.296 -3.5,0.218 -5.776,-1.778c-4.572,-4.008 -4.761,-7.389 -0.223,-3.978m-101.219,94.612c-26.967,3.952 -30.583,41.924 -4.906,51.525c26.371,9.862 49.063,-26.163 27.13,-43.071c-1.377,-1.062 -3.576,-2.84 -4.887,-3.951c-4.773,-4.047 -10.429,-5.516 -17.337,-4.503m158.419,0.011c-3.212,0.578 -5.785,1.744 -8.39,3.804c-1.365,1.08 -3.545,2.797 -4.846,3.815c-7.384,5.785 -9.94,11.142 -9.521,19.956c1.236,25.989 34.712,34.911 49.138,13.096c12.314,-18.619 -4.539,-44.601 -26.381,-40.671m-154.303,4.303c0.772,0.772 0.874,0.555 -1.519,3.221c-8.464,9.426 -3.282,22.846 8.815,22.826c5.035,-0.009 7.894,-1.601 11.41,-6.355c2.269,-3.067 2.466,-3.172 3.375,-1.785c3.935,6.006 -2.772,20.459 -11.443,24.657c-21.294,10.309 -42.832,-13.731 -29.782,-33.242c4.562,-6.821 16.05,-12.416 19.144,-9.322m165.922,0.464c21.122,7.354 19.808,38.177 -1.87,43.863c-14.756,3.87 -29.823,-8.098 -28.767,-22.85c0.368,-5.138 1.37,-5.545 4.237,-1.721c4.144,5.528 9.244,7.581 14.811,5.963c9.988,-2.903 12.749,-14.311 5.423,-22.402c-3.501,-3.866 -0.599,-5.208 6.166,-2.853m-152.51,3.724c4.895,2.858 4.519,12.778 -0.629,16.599c-8.981,6.666 -19.705,-5.554 -12.433,-14.168c2.58,-3.056 9.718,-4.384 13.062,-2.431m140.48,-0.089c10.125,3.45 7.638,18.341 -3.074,18.408c-5.585,0.034 -9.425,-4.243 -9.397,-10.47c0.032,-7.518 4.799,-10.552 12.471,-7.938m-79.308,34.534c-3.932,1.374 -4.054,5.425 -0.232,7.672c5.974,3.511 15.296,-1.577 11.391,-6.218c-1.507,-1.791 -7.835,-2.615 -11.159,-1.454m-2.515,41.259c-11.567,6.007 -17.868,7.199 -30.57,5.782c-2.632,-0.293 -2.763,0.126 -0.661,2.125c6.292,5.986 17.342,6.176 31.258,0.538c6.712,-2.719 7.342,-2.72 13.964,-0.026c13.86,5.64 24.251,5.518 31.114,-0.365c2.231,-1.912 2.126,-2.549 -0.372,-2.278c-12.778,1.388 -18.56,0.344 -29.981,-5.415c-7.712,-3.89 -7.946,-3.895 -14.752,-0.361m-218.012,-278.055l20,0l0,20l-20,0l0,-20zm430,0l20,0l0,20l-20,0l0,-20z" id="path2"/>
  </g>
 </g><circle fill="#59251b" cx="110" cy="210" r="27"/>

<circle fill="#59251b" cy="210" cx="270" r="27"/>

<circle fill="#fffcf5" r="12" cy="200" cx="118"/>

<circle fill="#fffcf5" r="12" cy="200" cx="270"/>
</svg>
