<?xml version="1.0" encoding="iso-8859-1"?>
<!-- Generator: Adobe Illustrator 19.0.0, SVG Export Plug-In . SVG Version: 6.00 Build 0)  -->
<svg version="1.1" id="Layer_1" xmlns="http://www.w3.org/2000/svg" xmlns:xlink="http://www.w3.org/1999/xlink" x="0px" y="0px"
	 viewBox="0 0 512 512" style="enable-background:new 0 0 512 512;" xml:space="preserve">
<circle style="fill:#0CBAD7;" cx="256" cy="256" r="248.396"/>
<path style="fill:#FFB912;" d="M145.002,130.648C174.549,104.466,213.419,88.57,256,88.57c92.468,0,167.431,74.961,167.431,167.43
	S348.468,423.43,256,423.43S88.569,348.469,88.569,256c0-42.59,15.903-81.466,42.094-111.014"/>
<circle style="fill:#F63455;" cx="256" cy="256" r="86.462"/>
<g>
	<path style="fill:#153651;" d="M437.019,74.981C388.667,26.629,324.38,0,256,0S123.332,26.629,74.981,74.981
		C26.629,123.332,0,187.62,0,256s26.629,132.667,74.981,181.019C123.332,485.371,187.62,512,256,512s132.667-26.629,181.019-74.981
		S512,324.38,512,256S485.371,123.332,437.019,74.981z M426.266,426.266c-45.48,45.48-105.949,70.526-170.266,70.526
		c-64.318,0-124.786-25.046-170.266-70.527C40.254,380.786,15.208,320.318,15.208,256S40.254,131.214,85.735,85.735
		C131.214,40.254,191.682,15.208,256,15.208c64.317,0,124.786,25.046,170.266,70.527c45.48,45.479,70.526,105.946,70.526,170.265
		S471.746,380.786,426.266,426.266z"/>
	<path style="fill:#153651;" d="M256,80.966c-42.817,0-84.028,15.623-116.04,43.991l10.085,11.383
		c29.23-25.901,66.858-40.165,105.956-40.165c88.129,0,159.827,71.697,159.827,159.826S344.129,415.826,256,415.826
		S96.173,344.129,96.173,256c0-39.103,14.269-76.738,40.179-105.97l-11.381-10.087c-28.378,32.017-44.007,73.233-44.007,116.058
		c0,96.514,78.52,175.034,175.035,175.034S431.035,352.514,431.035,256S352.515,80.966,256,80.966z"/>
	<path style="fill:#153651;" d="M350.068,256c0-51.869-42.199-94.067-94.068-94.067S161.932,204.131,161.932,256
		s42.199,94.067,94.068,94.067S350.068,307.869,350.068,256z M177.14,256c0-43.484,35.377-78.859,78.86-78.859
		c43.485,0,78.86,35.377,78.86,78.859s-35.377,78.859-78.86,78.859C212.515,334.859,177.14,299.484,177.14,256z"/>
</g>
</svg>
