<svg height='300px' width='300px'  fill="" xmlns="http://www.w3.org/2000/svg" data-name="Layer 1" viewBox="0 0 100 100" x="0px" y="0px"><title>Artboard 2</title><path d="M87.5,45a4,4,0,0,0-3.86,3H77.5v6.39l-4-4-1,1V30.5H83.64a4,4,0,1,0,0-2H72.5v-17h-45v17H18V22.86a4,4,0,1,0-2,0V30.5H27.5V48H16.36a4,4,0,1,0,0,2H27.5V66H22v7.5H16.36a4,4,0,1,0,0,2H24V68h3.5V82h45V69.5h11v8.64a4,4,0,1,0,2,0V67.5h-13V59.91l2.41-2.41H79.5V50h4.14a4,4,0,1,0,3.86-5Zm0-17.5a2,2,0,1,1-2,2A2,2,0,0,1,87.5,27.5ZM15,19a2,2,0,1,1,2,2A2,2,0,0,1,15,19ZM12.5,51a2,2,0,1,1,2-2A2,2,0,0,1,12.5,51Zm0,25.5a2,2,0,1,1,2-2A2,2,0,0,1,12.5,76.5Zm74,5.5a2,2,0,1,1-2-2A2,2,0,0,1,86.5,82Zm-13-28.77,1.41,1.42-.85.85L72.5,57.08l-.42.42L70.5,59.08,59.73,69.85l-1.42-1.41L70.5,56.25l.5-.5.25-.25,1.25-1.25ZM29.5,13.5h41V23h-41ZM70.5,80h-41V25h41V53.42l-15,15,4.25,4.24L70.5,61.91Zm17-29a2,2,0,1,1,2-2A2,2,0,0,1,87.5,51Z"></path><rect x="36.5" y="37.5" width="27" height="2"></rect><rect x="36.5" y="45" width="27" height="2"></rect><rect x="36.5" y="52.5" width="27" height="2"></rect><rect x="36.5" y="69" width="13.5" height="2"></rect><rect x="62" y="16" width="6" height="3"></rect><polygon points="53.48 74.68 59.28 73.13 55.04 68.89 53.48 74.68"></polygon><rect x="60.5" y="84" width="9" height="2"></rect><rect x="60.5" y="88.5" width="9" height="2"></rect></svg>
