<svg xmlns="http://www.w3.org/2000/svg" xmlns:xlink="http://www.w3.org/1999/xlink" aria-hidden="true" focusable="false" width="1em" height="1em" style="-ms-transform: rotate(360deg); -webkit-transform: rotate(360deg); transform: rotate(360deg);" preserveAspectRatio="xMidYMid meet" viewBox="11.5 12 49.1 47.9"><path fill="#ea5a47" d="M14.689 14.805h23.904v14.051H14.689z"/><path fill="#d0cfce" d="M27.956 13.411v17.012a.592.592 0 0 1-.598.407h-9.143a.72.72 0 0 1-.598-.407V13.237a.593.593 0 0 1 .598-.406h9.143a.72.72 0 0 1 .598.406z"/><ellipse cx="44.881" cy="49.88" rx="9.681" ry="5.806" fill="#5c9e31" stroke="#5c9e31" stroke-miterlimit="10" stroke-width="1.5"/><path fill="#5c9e31" d="M58.088 40.59v.348h-1.853a.583.583 0 0 0-.597-.522H36.575a.583.583 0 0 0-.598.522h-5.319v.407H30.3V59.11h5.677a.634.634 0 0 0 .598.581h19.063a.59.59 0 0 0 .597-.58h3.586V40.59zm0 14.632h-.24a2.402 2.402 0 0 0-2.45 2.206H34.723a2.386 2.386 0 0 0-2.39-2.206h-.24V44.828h.24a2.346 2.346 0 0 0 2.39-2.206h20.617a2.402 2.402 0 0 0 2.45 2.206h.239v10.393z"/><path fill="#5c9e31" d="M35.917 56.847h18.585v1.684H35.917z"/><path fill="#5c9e31" d="M34.423 41.519h18.585v1.684H34.423z"/><path fill="#d0cfce" d="M50.08 41.577v17.186a.593.593 0 0 1-.598.406H40.34a.72.72 0 0 1-.597-.406v-17.36a.593.593 0 0 1 .597-.407h9.144a.72.72 0 0 1 .597.406z"/><ellipse cx="33.214" cy="20.727" rx="3.526" ry="3.426" fill="#fff"/><g fill="none" stroke="#000" stroke-width="1.5"><path stroke-linecap="round" stroke-linejoin="round" d="M48.485 26.717l-2.36-3.983l4.1-2.293"/><path stroke-linecap="round" stroke-linejoin="round" d="M47.072 22.888a14.706 14.706 0 0 1 10.822 11.384"/><path stroke-linecap="round" stroke-linejoin="round" d="M23.094 45.255l2.359 3.983l-4.099 2.292"/><path stroke-linecap="round" stroke-linejoin="round" d="M24.507 49.084A14.706 14.706 0 0 1 13.685 37.7"/><ellipse cx="33.214" cy="20.727" rx="3.526" ry="3.426" stroke-miterlimit="10"/><path stroke-linecap="round" stroke-linejoin="round" d="M27.956 13.411v17.012a.592.592 0 0 1-.598.407h-9.143a.72.72 0 0 1-.598-.407V13.237a.593.593 0 0 1 .598-.406h9.143a.72.72 0 0 1 .598.406z"/><path stroke-linecap="round" stroke-linejoin="round" d="M22.876 24.443v-2.264l1.554-2.962l-1.554 2.962l-1.494-2.962"/><path stroke-linecap="round" stroke-linejoin="round" d="M21.442 21.83h2.928"/><path stroke-linecap="round" stroke-linejoin="round" d="M14.928 30.888h-2.151a.557.557 0 0 1-.598-.58V13.352a.557.557 0 0 1 .598-.58h2.151"/><path stroke-linecap="round" stroke-linejoin="round" d="M30.645 12.83l10.398-.057a.557.557 0 0 1 .598.58v16.954a.557.557 0 0 1-.598.58l-10.398-.057"/><path stroke-linecap="round" stroke-linejoin="round" d="M30.645 15.269h8.247v13.122h-8.247"/><path stroke-linecap="round" stroke-linejoin="round" d="M14.928 28.507V15.269"/><path stroke-linecap="round" stroke-linejoin="round" d="M52.47 42.68H55.4a2.402 2.402 0 0 0 2.45 2.206h.239V55.28h-.24a2.402 2.402 0 0 0-2.45 2.207H52.47m-14.88-.058h-2.868a2.386 2.386 0 0 0-2.39-2.207h-.24V44.828h.24a2.346 2.346 0 0 0 2.39-2.206h2.63"/><path stroke-linecap="round" stroke-linejoin="round" d="M50.08 41.577v17.186a.593.593 0 0 1-.598.406H40.34a.72.72 0 0 1-.597-.406v-17.36a.593.593 0 0 1 .597-.407h9.144a.72.72 0 0 1 .597.406z"/><path stroke-linecap="round" stroke-linejoin="round" d="M37.59 59.111h-6.693a.557.557 0 0 1-.597-.58V41.577a.557.557 0 0 1 .597-.581h6.454"/><path stroke-linecap="round" stroke-linejoin="round" d="M52.35 40.996h6.873a.557.557 0 0 1 .598.58v16.955a.557.557 0 0 1-.598.58h-6.872"/><path stroke-linecap="round" stroke-miterlimit="10" d="M51.753 45.757c1.733 1.045 2.869 2.497 2.869 4.123s-1.136 3.077-2.869 4.122"/><path stroke-linecap="round" stroke-miterlimit="10" d="M37.351 53.48A4.72 4.72 0 0 1 35.2 49.82a4.926 4.926 0 0 1 2.45-3.89"/><path stroke-linecap="round" stroke-linejoin="round" d="M46.315 48.428a1.34 1.34 0 0 0-1.374-.871h0a1.23 1.23 0 0 0-1.375 1.103a1.267 1.267 0 0 0 1.375 1.103h0a1.23 1.23 0 0 1 1.374 1.103a1.311 1.311 0 0 1-1.374 1.104h0a1.34 1.34 0 0 1-1.375-.87"/><path stroke-linecap="round" stroke-linejoin="round" d="M44.881 47.557v-1.045"/><path stroke-linecap="round" stroke-linejoin="round" d="M44.881 52.957v-1.045"/></g></svg>
