<svg xmlns="http://www.w3.org/2000/svg" xmlns:xlink="http://www.w3.org/1999/xlink" aria-hidden="true" focusable="false" width="1em" height="1em" style="-ms-transform: rotate(360deg); -webkit-transform: rotate(360deg); transform: rotate(360deg);" preserveAspectRatio="xMidYMid meet" viewBox="0 0 64 64"><g fill="#acb8bf"><path d="M2 60.1h60V62H2z"/><path d="M5.5 56.4h53v1.9h-53z"/></g><g fill="#dae3ea"><path d="M3.8 58.2h56.5v1.9H3.8z"/><path d="M7.2 54.5h49.5v1.9H7.2z"/></g><path fill="#94989b" d="M4.8 27.8h54.4v1.9H4.8z"/><path fill="#dae3ea" d="M2 29.6h60v1.9H2z"/><path fill="#94989b" d="M32 4.8L2 21.2L4.5 25L32 6.7L59.5 25l2.5-3.8z"/><g fill="#dae3ea"><path d="M32 2L2 21.2v2.9L32 4.8l30 19.3v-2.9z"/><path d="M32 6.7L2 25.9v1.9h60v-1.9z"/></g><path fill="#acb8bf" d="M32 9.5L7.1 25.9h49.8z"/><path fill="#dae3ea" d="M8.5 33.2h6v19.6h-6z"/><g fill="#94989b"><path d="M7.8 52.8h7.5v1.8H7.8z"/><path d="M7.8 31.5h7.5v1.7H7.8z"/></g><g fill="#c8d0d6"><path d="M9.1 34h.7v18h-.7z"/><path d="M13.2 34h.7v18h-.7z"/><path d="M11.8 34h.7v18h-.7z"/><path d="M10.5 34h.7v18h-.7z"/></g><path fill="#dae3ea" d="M22.2 33.2h6v19.6h-6z"/><g fill="#94989b"><path d="M21.4 52.8h7.5v1.7h-7.5z"/><path d="M21.4 31.5h7.5v1.7h-7.5z"/></g><g fill="#c8d0d6"><path d="M22.8 34h.7v18h-.7z"/><path d="M26.9 34h.7v18h-.7z"/><path d="M25.5 34h.7v18h-.7z"/><path d="M24.1 34h.7v18h-.7z"/></g><path fill="#dae3ea" d="M35.8 33.2h6v19.6h-6z"/><g fill="#94989b"><path d="M35.1 52.8h7.5v1.7h-7.5z"/><path d="M35.1 31.5h7.5v1.7h-7.5z"/></g><g fill="#c8d0d6"><path d="M36.4 34h.7v18h-.7z"/><path d="M40.5 34h.7v18h-.7z"/><path d="M39.2 34h.7v18h-.7z"/><path d="M37.8 34h.7v18h-.7z"/></g><path fill="#dae3ea" d="M49.5 33.2h6v19.6h-6z"/><g fill="#94989b"><path d="M48.8 52.8h7.5v1.8h-7.5z"/><path d="M48.8 31.5h7.5v1.7h-7.5z"/></g><g fill="#c8d0d6"><path d="M50.1 34h.7v18h-.7z"/><path d="M54.2 34h.7v18h-.7z"/><path d="M52.8 34h.7v18h-.7z"/><path d="M51.5 34h.7v18h-.7z"/></g></svg>
