<svg width="76" height="52" viewbox="0 0 76 52" xmlns="http://www.w3.org/2000/svg">
 <g>
  <path id="svg_1" fill="#7FE6DB" d="m31.9199,22.4894c-0.3867,-0.1312 -0.7971,-0.1783 -1.2035,-0.1379c-0.4065,0.0403 -0.7996,0.167 -1.1531,0.3717l-26.2128,15.1836c-0.0097,0.0056 -0.0193,0.0113 -0.0289,0.0173c-1.3267,0.8167 -1.7502,2.3288 -1.0544,3.7627c0.868,1.7875 3.9428,3.4703 7.6515,4.1875c1.3504,0.2587 2.7225,0.388 4.0975,0.386c2.9522,0 6.5762,-0.5811 10.5892,-2.4524c3.1171,-1.4532 6.081,-4.6272 7.9288,-8.4914c1.9467,-4.0709 2.3322,-8.1774 1.0578,-11.2666c-0.1514,-0.3643 -0.3789,-0.6919 -0.6673,-0.9611c-0.2884,-0.2691 -0.631,-0.4735 -1.0048,-0.5994z"/>
  <path id="svg_2" fill="#7FE6DB" d="m72.5506,37.9241c-0.0096,-0.006 -0.0193,-0.0117 -0.029,-0.0173l-26.2122,-15.1836c-0.3534,-0.2047 -0.7465,-0.3315 -1.153,-0.3718c-0.4064,-0.0404 -0.8168,0.0067 -1.2036,0.138c-0.3739,0.1258 -0.7166,0.3302 -1.0051,0.5993c-0.2885,0.2692 -0.5161,0.5969 -0.6674,0.9613c-1.2745,3.089 -0.8899,7.1956 1.0578,11.2665c1.8476,3.8637 4.8114,7.0379 7.9276,8.4914c4.0137,1.8712 7.6372,2.4524 10.5894,2.4524c1.375,0.002 2.747,-0.1273 4.0974,-0.386c3.7088,-0.7173 6.7836,-2.4 7.6513,-4.1872c0.6971,-1.4338 0.2736,-2.9461 -1.0532,-3.763z"/>
  <path id="svg_3" fill="#475459" d="m27.2387,1.3791c0,-0.6926 0.5615,-1.2541 1.2541,-1.2541c2.1681,0 4.2473,0.8613 5.7803,2.3943c1.533,1.533 2.3943,3.6122 2.3943,5.7802c0,0.6926 -0.5615,1.2541 -1.2541,1.2541c-0.6926,0 -1.2541,-0.5615 -1.2541,-1.2541c0,-1.5028 -0.597,-2.944 -1.6596,-4.0067c-1.0627,-1.0626 -2.504,-1.6596 -4.0068,-1.6596c-0.6926,0 -1.2541,-0.5615 -1.2541,-1.2541z" clip-rule="evenodd" fill-rule="evenodd"/>
  <path id="svg_4" fill="#475459" d="m47.5376,2.6332c-0.7441,0 -1.481,0.1466 -2.1685,0.4314c-0.6874,0.2847 -1.312,0.7021 -1.8382,1.2282c-0.5261,0.5262 -0.9435,1.1508 -1.2282,1.8383c-0.2847,0.6874 -0.4313,1.4242 -0.4312,2.1683c0,0.6927 -0.5615,1.2542 -1.2541,1.2542c-0.6926,0 -1.2541,-0.5615 -1.2542,-1.2541c0,-1.0734 0.2114,-2.1364 0.6222,-3.1282c0.4108,-0.9918 1.0129,-1.8929 1.7719,-2.652c0.7591,-0.7591 1.6602,-1.3612 2.652,-1.772c0.9917,-0.4108 2.0548,-0.6223 3.1283,-0.6223c0.6926,0 1.2541,0.5615 1.2541,1.2541c0,0.6926 -0.5615,1.2541 -1.2541,1.2541z" clip-rule="evenodd" fill-rule="evenodd"/>
  <path id="svg_5" fill="#475459" d="m50.3007,44.0383l-27.0922,0l12.3071,7.1025c0.736,0.4268 1.5716,0.6519 2.4224,0.6524c0.8508,0.0004 1.6867,-0.2236 2.4232,-0.6496l12.3121,-7.1057l-2.3726,0.0004z"/>
  <path id="svg_6" fill="#475459" d="m54.0979,28.3512l-33.5769,0l0,8.1401l34.831,0l0,-8.1401l-1.2541,0z"/>
  <path id="svg_7" fill="#FFDD0F" d="m52.9354,20.9796l-0.3041,-0.1756l-29.3808,0l-0.3056,0.1765c-0.7346,0.4254 -1.345,1.0358 -1.7702,1.7705c-0.4252,0.7347 -0.6504,1.568 -0.6533,2.4168l0,3.1834l34.831,0l0,-3.1829c-0.0031,-0.8482 -0.2277,-1.681 -0.6516,-2.4157c-0.4239,-0.7347 -1.0325,-1.3459 -1.7654,-1.773z"/>
  <path id="svg_8" fill="#FFDD0F" d="m54.0979,36.4911l-33.5769,0l0,3.1992c0.002,0.8505 0.227,1.6856 0.6525,2.422c0.4255,0.7364 1.0366,1.3485 1.7724,1.775l0.2624,0.1516l29.4649,0l0.2673,-0.1544c0.7322,-0.4286 1.3397,-1.041 1.7625,-1.7765c0.4228,-0.7355 0.6462,-1.5687 0.6482,-2.417l0,-3.1992l-1.2533,-0.0007z"/>
  <path id="svg_9" fill="#475459" d="m40.3623,13.7234c-0.7356,-0.4262 -1.5707,-0.6507 -2.4209,-0.6509c-0.8501,-0.0001 -1.6853,0.2241 -2.421,0.6501l-12.2704,7.0815l29.3816,0l-12.2693,-7.0807z"/>
 </g>
</svg>
