<svg xmlns="http://www.w3.org/2000/svg" viewBox="0 0 28.65 30.5">
  <rect xmlns="http://www.w3.org/2000/svg" x="0" height="30.5" fill="#3b12ba" width="28.65" rx="5"/>

<g clip-path="url(#clip0)">
<path fill-rule="evenodd" clip-rule="evenodd" d="M0 20.1158V15.137C0 7.22893 6.41075 0.818176 14.3188 0.818176C18.2194 0.818176 21.7558 2.37787 24.3382 4.90762L21.2942 6.8097C19.4072 5.22729 16.9743 4.27444 14.3188 4.27444C8.3196 4.27444 3.45627 9.13778 3.45627 15.137H6.91252L0 20.1158ZM7.29108 23.42C9.18543 25.029 11.6389 25.9996 14.319 25.9996C20.3182 25.9996 25.1816 21.1363 25.1816 15.137H21.7253L28.6375 10.0761L28.6378 15.137C28.6378 23.0451 22.2271 29.4559 14.319 29.4559C10.3942 29.4559 6.83821 27.8768 4.25168 25.3192L7.29108 23.42ZM19.8118 19.8894H15.8618L14.319 17.8053L12.7762 19.8894H8.82617L12.4046 15.2192L8.82585 10.3847H12.529L14.319 12.7208L16.109 10.3847H19.8122L16.2334 15.2192L19.8118 19.8894Z" fill="white"/>
</g>
</svg>
