<svg id="" enable-background="new 0 0 64 64" height="512" viewBox="0 0 64 64" width="512" xmlns="http://www.w3.org/2000/svg"><g><g><path d="m4 62v-12c0-1.657 1.343-3 3-3 1.657 0 3 1.343 3 3v12z" fill="#616469"/></g><g><path d="m4 56h6v6h-6z" fill="#c1c8d1"/></g><g><path d="m34 43h-27c-1.657 0-3-1.343-3-3 0-1.657 1.343-3 3-3h27z" fill="#616469"/></g><g><path d="m19 37-6 6h-6l6-6z" fill="#f9d18b"/></g><g><path d="m31 37-6 6h-6l6-6z" fill="#f9d18b"/></g><g><path d="m60 20h-28l4-6h20z" fill="#64a5f8"/></g><g><path d="m54 19c0-1.698-.118-3.366-.336-5h-17.664l-4 6h21.977c.008-.333.023-.665.023-1z" fill="#83b7f9"/></g><g><path d="m34 20h24v38h-24z" fill="#c1c8d1"/></g><g><path d="m34 51.313c11.473-5.153 19.607-17.185 19.977-31.313h-19.977z" fill="#e6e9ed"/></g><g><path d="m38 24h16v18h-16z" fill="#fff"/></g><g><path d="m42 42v-5c0-2.209 1.791-4 4-4 2.209 0 4 1.791 4 4v5z" fill="#64a5f8"/></g><g><path d="m38 46h16v8h-16z" fill="#64a5f8"/></g><g><path d="m32 58h28v4h-28z" fill="#616469"/></g><g><circle cx="16" cy="14" fill="#f9d18b" r="12"/></g><g><path d="m4 14c0 3.96 1.927 7.462 4.885 9.647 8.044-1.668 14.115-9.155 14.115-18.147 0-.432-.034-.855-.061-1.279-1.96-1.393-4.351-2.221-6.939-2.221-6.627 0-12 5.373-12 12z" fill="#fbe3b9"/></g><g><path d="m33 20h2v38h-2z"/></g><g><path d="m57 20h2v38h-2z"/></g><g><path d="m60 21h-28c-.369 0-.708-.203-.882-.528s-.155-.72.05-1.026l4-6c.186-.279.498-.446.832-.446h20c.334 0 .646.167.832.445l4 6c.205.307.224.701.05 1.026-.174.326-.513.529-.882.529zm-26.131-2h24.263l-2.667-4h-18.93z"/></g><g><path d="m61 62h-2v-3h-26v3h-2v-4c0-.552.448-1 1-1h28c.552 0 1 .448 1 1z"/></g><g><path d="m54 55h-16c-.552 0-1-.448-1-1v-8c0-.552.448-1 1-1h16c.552 0 1 .448 1 1v8c0 .552-.448 1-1 1zm-15-2h14v-6h-14z"/></g><g><path d="m41 49h10v2h-10z"/></g><g><path d="m54 43h-16c-.552 0-1-.448-1-1v-18c0-.552.448-1 1-1h16c.552 0 1 .448 1 1v18c0 .552-.448 1-1 1zm-15-2h14v-16h-14z"/></g><g><path d="m51 42h-2v-5c0-1.654-1.346-3-3-3s-3 1.346-3 3v5h-2v-5c0-2.757 2.243-5 5-5s5 2.243 5 5z"/></g><g><path d="m11 62h-2v-12c0-1.103-.897-2-2-2s-2 .897-2 2v12h-2v-12c0-2.206 1.794-4 4-4s4 1.794 4 4z"/></g><g><path d="m4 55h6v2h-6z"/></g><g><path d="m1 61h62v2h-62z"/></g><g><path d="m34 44h-27c-2.206 0-4-1.794-4-4s1.794-4 4-4h27v2h-27c-1.103 0-2 .897-2 2s.897 2 2 2h27z"/></g><g><path d="m5.757 39h8.485v2h-8.485z" transform="matrix(.707 -.707 .707 .707 -25.355 18.787)"/></g><g><path d="m11.757 39h8.485v2h-8.485z" transform="matrix(.707 -.707 .707 .707 -23.598 23.029)"/></g><g><path d="m17.757 39h8.485v2h-8.485z" transform="matrix(.707 -.707 .707 .707 -21.841 27.272)"/></g><g><path d="m23.757 39h8.485v2h-8.485z" transform="matrix(.707 -.707 .707 .707 -20.083 31.515)"/></g><g><path d="m16 21c-2.206 0-4-1.794-4-4h2c0 1.103.897 2 2 2s2-.897 2-2-.897-2-2-2c-2.206 0-4-1.794-4-4s1.794-4 4-4 4 1.794 4 4h-2c0-1.103-.897-2-2-2s-2 .897-2 2 .897 2 2 2c2.206 0 4 1.794 4 4s-1.794 4-4 4z"/></g><g><path d="m15 5h2v3h-2z"/></g><g><path d="m15 20h2v3h-2z"/></g><g><path d="m16 27c-7.168 0-13-5.832-13-13s5.832-13 13-13 13 5.832 13 13-5.832 13-13 13zm0-24c-6.065 0-11 4.935-11 11s4.935 11 11 11 11-4.935 11-11-4.935-11-11-11z"/></g></g></svg>
