<svg width="64" height="72" xmlns="http://www.w3.org/2000/svg">
 <defs>
  <filter filterUnits="userSpaceOnUse" y="0" x="0" height="101" width="91" id="a">
   <feGaussianBlur stdDeviation="4"/>
  </filter>
  <linearGradient y2="0%" y1="100%" x2="0%" x1="0%" id="b">
   <stop stop-color="#FDAC42" offset="0%"/>
   <stop stop-color="#FDD341" offset="100%"/>
  </linearGradient>
 </defs>
 <g>
  <title>Layer 1</title>
  <path id="svg_1" filter="url(#a)" d="m25.30341,68.01637c-6.124,-3.676 -17.971,-10.784 -19.711,-11.832c-3.509,-2.339 -3.509,-6.071 -3.509,-6.071l0.001,-28.075s-0.001,-4.061 3.539,-6.099l19.679,-11.813c6.781,-4.067 6.781,-4.067 13.573,0.008l19.651,11.796c3.557,2.151 3.554,6.101 3.554,6.101l0,28.084s0.003,3.909 -3.554,6.097l-19.658,11.8c-6.785,4.076 -6.785,4.076 -13.565,0.004z" fill-rule="evenodd" fill="#FFF"/>
  <path id="svg_2" d="m25.30341,68.01637c-6.124,-3.676 -17.971,-10.784 -19.711,-11.832c-3.509,-2.339 -3.509,-6.071 -3.509,-6.071l0.001,-28.075s-0.001,-4.061 3.539,-6.099l19.679,-11.813c6.781,-4.067 6.781,-4.067 13.573,0.008l19.651,11.796c3.557,2.151 3.554,6.101 3.554,6.101l0,28.084s0.003,3.909 -3.554,6.097l-19.658,11.8c-6.785,4.076 -6.785,4.076 -13.565,0.004z" fill="url(#b)"/>
  <path id="svg_3" d="m48.03741,22.38737l-11.624,14.274l11.616,14.263l-8.661,0l-7.285,-8.946l-7.285,8.946l-8.661,0l11.616,-14.263l-11.623,-14.274l8.66,0l7.293,8.957l7.293,-8.957l8.661,0z" fill-rule="evenodd" fill="#FFF"/>
 </g>
</svg>
